#!Matlab matrix to amc conversion
:FULLY-SPECIFIED
:DEGREES
76
root -1.365509 1.009000 30.225256 5.142969 4.883234 -1.713689
lowerback -4.998470 -2.732802 -2.571919
upperback -1.999884 -3.609275 4.246565
thorax 1.131503 -1.792995 5.644600
lowerneck -22.069259 -2.936496 -12.560709
upperneck 26.681545 -3.312227 12.075734
head 13.066770 -1.157315 6.332199
rclavicle 0.000000 -0.000000
rhumerus -42.467063 -15.849074 -62.918883
rradius 16.661007
rwrist 17.365572
rhand -28.856200 -18.800500
rfingers 7.125020
rthumb -2.212790 -48.768800
lclavicle 0.000000 -0.000000
lhumerus -27.502941 -24.398465 98.737951
lradius 40.615549
lwrist 18.374959
lhand -19.668800 -28.799300
lfingers 7.125020
lthumb 6.659510 1.076010
rfemur -21.874502 -4.614265 27.712596
rtibia 31.525091
rfoot -8.775042 11.268110
rtoes -20.766800
lfemur -6.210815 8.686152 -12.730599
ltibia 56.863678
lfoot 34.463470 46.556010
ltoes -22.051700
77
root -1.398607 1.079873 30.552629 5.171981 4.472428 -1.822027
lowerback -5.232879 -2.167444 -2.498296
upperback -1.906370 -2.849448 4.065981
thorax 1.266824 -1.416825 5.456932
lowerneck -22.215545 -3.494797 -12.509765
upperneck 26.398327 -4.141147 12.161561
head 13.107428 -1.495821 6.198240
rclavicle 0.000000 -0.000000
rhumerus -40.689596 -12.097933 -66.851047
rradius 17.778461
rwrist 12.572186
rhand -28.856200 -18.800500
rfingers 7.125020
rthumb -2.212790 -48.768800
lclavicle 0.000000 -0.000000
lhumerus -27.509145 -24.475518 99.806697
lradius 36.822170
lwrist 16.707323
lhand -19.668800 -28.799300
lfingers 7.125020
lthumb 6.659510 1.076010
rfemur -18.807415 -3.730240 27.692747
rtibia 27.992751
rfoot -9.474148 10.371492
rtoes -20.766800
lfemur -10.634173 8.957320 -13.682395
ltibia 59.724770
lfoot 31.739149 49.929656
ltoes -22.051700
78
root -1.422288 1.116825 30.876166 5.205525 3.915110 -1.906630
lowerback -5.465911 -1.622136 -2.345723
upperback -1.808547 -2.120652 3.827859
thorax 1.405692 -1.055859 5.158175
lowerneck -22.450780 -3.926021 -12.363307
upperneck 26.312956 -4.801250 12.157337
head 13.213043 -1.761019 6.053242
rclavicle 0.000000 -0.000000
rhumerus -39.254369 -8.105104 -70.708948
rradius 18.872151
rwrist 8.104169
rhand -28.856200 -18.800500
rfingers 7.125020
rthumb -2.212790 -48.768800
lclavicle 0.000000 -0.000000
lhumerus -27.389672 -23.500390 100.188736
lradius 33.233309
lwrist 14.310348
lhand -19.668800 -28.799300
lfingers 7.125020
lthumb 6.659510 1.076010
rfemur -16.206688 -2.923937 27.820002
rtibia 25.035874
rfoot -10.136463 9.381034
rtoes -20.766800
lfemur -14.546778 9.564337 -14.864964
ltibia 61.918556
lfoot 27.575956 50.405578
ltoes -22.051700
79
root -1.438726 1.123718 31.199710 5.273113 3.283908 -2.024568
lowerback -5.644724 -1.118206 -2.090370
upperback -1.724185 -1.452754 3.586268
thorax 1.505497 -0.724540 4.792830
lowerneck -22.689348 -4.225841 -12.190245
upperneck 26.364773 -5.278213 12.111689
head 13.343019 -1.949419 5.927245
rclavicle 0.000000 -0.000000
rhumerus -38.117266 -4.092006 -74.257279
rradius 20.010147
rwrist 4.056109
rhand -28.856200 -18.800500
rfingers 7.125020
rthumb -2.212790 -48.768800
lclavicle 0.000000 -0.000000
lhumerus -27.435410 -21.647063 99.964790
lradius 30.041766
lwrist 11.347027
lhand -19.668800 -28.799300
lfingers 7.125020
lthumb 6.659510 1.076010
rfemur -14.029463 -2.312357 28.118632
rtibia 22.705074
rfoot -10.887348 8.459686
rtoes -20.766800
lfemur -18.217590 10.344780 -16.100531
ltibia 63.699652
lfoot 22.323996 48.357417
ltoes -22.051700
80
root -1.450194 1.107679 31.525201 5.386465 2.493457 -2.129813
lowerback -5.822658 -0.587483 -1.788247
upperback -1.692915 -0.751402 3.352190
thorax 1.547132 -0.374916 4.410935
lowerneck -22.931286 -4.486746 -12.034530
upperneck 26.407621 -5.671197 12.010327
head 13.457165 -2.110770 5.794691
rclavicle 0.000000 -0.000000
rhumerus -37.144273 0.102970 -77.274855
rradius 21.695424
rwrist 0.410846
rhand -28.856200 -18.800500
rfingers 7.125020
rthumb -2.212790 -48.768800
lclavicle 0.000000 -0.000000
lhumerus -28.039573 -19.758098 99.781558
lradius 27.202305
lwrist 8.960549
lhand -19.668800 -28.799300
lfingers 7.125020
lthumb 6.659510 1.076010
rfemur -11.802253 -1.739132 28.458903
rtibia 20.456287
rfoot -11.652927 7.824630
rtoes -20.766800
lfemur -21.706607 11.232721 -17.289705
ltibia 64.184056
lfoot 19.891849 48.589596
ltoes -22.051700
